<svg width="29" height="28" viewBox="0 0 29 28" fill="none" xmlns="http://www.w3.org/2000/svg">
<path fill-rule="evenodd" clip-rule="evenodd" d="M16.3055 13.976C16.3055 9.45155 16.3055 4.92684 16.3055 0.401854C16.3055 0.0138032 16.3106 0.00869899 16.7086 0.00869899C18.1133 0.00869899 19.5147 -0.0108737 20.9228 0.00869899C22.5643 0.0300525 24.1482 0.616572 25.4082 1.66957C26.6683 2.72256 27.5274 4.17776 27.8411 5.79031C27.9398 6.31445 27.9899 6.84659 27.9908 7.37996C28.0021 11.834 28.0041 16.2875 27.9967 20.7405C28.0045 21.6886 27.8248 22.6288 27.468 23.5072C27.1112 24.3855 26.5844 25.1846 25.9179 25.8583C25.2513 26.5321 24.4582 27.0673 23.5842 27.4332C22.7101 27.799 21.7724 27.9883 20.825 27.99C19.473 27.9994 18.121 27.99 16.769 27.99C16.3047 27.99 16.3047 27.99 16.3047 27.5143L16.3055 13.976ZM21.8684 12.588C20.2978 12.5514 19.0453 13.8704 19.0249 15.3546C19.0036 16.8949 20.2596 18.1322 21.6669 18.2105C23.3556 18.3049 24.6498 16.9229 24.6498 15.4388C24.6507 13.867 23.4509 12.6161 21.8684 12.588Z" fill="white"/>
<path fill-rule="evenodd" clip-rule="evenodd" d="M13.5114 14.0081V27.6103C13.5114 27.9643 13.4739 28.0009 13.1211 28H7.35152C5.38385 28 3.66106 27.3541 2.23165 25.9977C1.1829 25.0122 0.467671 23.7238 0.185741 22.312C0.0914749 21.8928 0.0393461 21.4652 0.0301305 21.0355C0.0199265 16.3508 -0.0412992 11.6653 0.0471357 6.98315C0.103258 4.05149 1.6075 1.92402 4.25715 0.647533C5.23163 0.176085 6.2801 0.00333424 7.36173 0.00588721C9.27583 0.0109932 11.1882 0.00588721 13.1049 0.00588721C13.5012 0.00588721 13.5139 0.0195017 13.5139 0.431381L13.5114 14.0081ZM11.2299 25.7151V2.27292H10.9246C9.74862 2.27292 8.57176 2.26441 7.39574 2.27803C7.00261 2.28038 6.61037 2.31567 6.22313 2.38355C4.01225 2.78267 2.29202 4.85653 2.29117 7.10229C2.29117 11.7147 2.27672 16.3279 2.29883 20.9402C2.30478 22.3171 2.8728 23.4847 3.88215 24.4242C4.85238 25.3262 6.01649 25.7245 7.32601 25.7296C8.54624 25.7347 9.76648 25.7296 10.9867 25.7296C11.0598 25.7296 11.1449 25.7211 11.2299 25.7151Z" fill="white"/>
<path fill-rule="evenodd" clip-rule="evenodd" d="M4.39172 8.39232C4.35006 7.03054 5.49716 5.76835 7.0031 5.77345C8.47418 5.77856 9.65529 6.885 9.64594 8.4519C9.63659 10.0188 8.32877 11.075 6.97334 11.0418C5.51331 11.0018 4.38237 9.86389 4.39172 8.39232Z" fill="white"/>
</svg>
