<svg width="30" height="30" viewBox="0 0 30 30" fill="none" xmlns="http://www.w3.org/2000/svg">
<path d="M4.46163 4.32565C1.86656 6.88662 0.293638 10.3053 0.0371627 13.942C-0.219312 17.5788 0.858239 21.1843 3.06819 24.0841C3.07649 24.097 3.08904 24.1066 3.10368 24.1113C3.11832 24.1159 3.13411 24.1152 3.14832 24.1094C3.16004 24.1008 3.16826 24.0883 3.17147 24.0741C3.17468 24.06 3.17267 24.0451 3.16579 24.0323C2.02116 20.4964 7.86781 11.9246 10.8878 8.33445C10.8999 8.32262 10.9077 8.30717 10.9101 8.29047C10.909 8.28082 10.906 8.27149 10.9011 8.26309C10.8962 8.25469 10.8896 8.2474 10.8818 8.24168C5.79904 3.18535 4.44235 4.34131 4.46163 4.32565ZM25.5391 4.32565C28.1336 6.88678 29.7062 10.3052 29.9628 13.9417C30.2194 17.5781 29.1423 21.1835 26.9331 24.0835C26.9249 24.0965 26.9124 24.1062 26.8977 24.1108C26.883 24.1155 26.8672 24.1147 26.853 24.1088C26.8418 24.0999 26.8339 24.0873 26.8307 24.0733C26.8275 24.0593 26.8292 24.0446 26.8355 24.0317C27.9801 20.4958 22.1365 11.9204 19.1201 8.32601C19.1077 8.31499 19.0997 8.29976 19.0978 8.28324C19.0984 8.27329 19.1012 8.26359 19.1061 8.25492C19.111 8.24624 19.1179 8.23882 19.1261 8.23325C24.2083 3.17752 25.5547 4.34131 25.5391 4.32565ZM15.0001 0C18.0267 0 20.5172 0.829469 22.8137 2.19505C22.8268 2.20128 22.837 2.21249 22.8419 2.22622C22.8468 2.23994 22.8461 2.25506 22.8399 2.26824C22.8336 2.28142 22.8224 2.29158 22.8087 2.2965C22.795 2.30141 22.7798 2.30067 22.7667 2.29444C19.8629 1.66677 15.4483 4.17626 15.032 4.42685C15.0228 4.43407 15.0117 4.43847 15.0001 4.4395C14.9881 4.43881 14.9768 4.43438 14.9675 4.42685C13.8602 3.79134 9.77994 1.65593 7.21055 2.3101C7.19721 2.31633 7.18194 2.31701 7.1681 2.31198C7.15426 2.30696 7.14298 2.29664 7.13675 2.2833C7.13052 2.26996 7.12984 2.25469 7.13487 2.24085C7.1399 2.22701 7.15022 2.21574 7.16356 2.20951C9.45944 0.829469 11.9843 0 15.0001 0ZM15.0001 12.0294C15.0181 12.032 15.0348 12.0405 15.0476 12.0535C19.5364 15.466 27.2169 23.9028 24.8734 26.2888L24.877 26.2858V26.2888H24.874C22.141 28.6812 18.6321 30 14.9998 30C11.3674 30 7.85854 28.6812 5.12552 26.2888C2.78324 23.9028 10.4643 15.466 14.9482 12.0535C14.9628 12.0405 14.9808 12.0322 15.0001 12.0294Z" fill="white"/>
</svg>
