<?xml version="1.0" encoding="utf-8"?>
<!-- Generator: Adobe Illustrator 28.0.0, SVG Export Plug-In . SVG Version: 6.00 Build 0)  -->
<svg version="1.1" id="MS-symbol" xmlns="http://www.w3.org/2000/svg" xmlns:xlink="http://www.w3.org/1999/xlink" x="0px" y="0px"
	 viewBox="0 0 337.65 72" style="enable-background:new 0 0 337.65 72;" xml:space="preserve">
<style type="text/css">
	.st0{fill:#FFFFFF;}
	.st1{fill:#F25022;}
	.st2{fill:#7FBA00;}
	.st3{fill:#00A4EF;}
	.st4{fill:#FFB900;}
</style>
<g>
	<path class="st0" d="M140.35,14.4v43.2h-7.5V23.74h-0.12L119.32,57.6h-4.97l-13.74-33.86h-0.09V57.6H93.6V14.4h10.75l12.41,32.02
		h0.18l13.1-32.02H140.35z M146.63,17.68c0-1.21,0.44-2.21,1.31-3.03c0.87-0.81,1.91-1.22,3.12-1.22c1.29,0,2.35,0.42,3.19,1.25
		c0.84,0.83,1.27,1.83,1.27,3c0,1.18-0.43,2.18-1.3,2.98c-0.86,0.8-1.92,1.21-3.16,1.21s-2.29-0.41-3.15-1.22
		C147.05,19.84,146.63,18.85,146.63,17.68z M154.67,26.63V57.6h-7.29V26.63H154.67z M176.78,52.3c1.08,0,2.28-0.25,3.58-0.75
		c1.31-0.5,2.51-1.16,3.62-1.99v6.78c-1.16,0.66-2.49,1.17-3.96,1.51c-1.48,0.34-3.1,0.51-4.87,0.51c-4.56,0-8.26-1.44-11.12-4.32
		c-2.85-2.88-4.28-6.56-4.28-11.04c0-4.98,1.46-9.08,4.37-12.31c2.91-3.22,7.04-4.83,12.38-4.83c1.37,0,2.75,0.18,4.14,0.53
		c1.4,0.35,2.5,0.76,3.33,1.22v6.99c-1.13-0.82-2.27-1.46-3.45-1.91c-1.17-0.45-2.38-0.68-3.6-0.68c-2.87,0-5.19,0.93-6.96,2.8
		c-1.77,1.87-2.65,4.39-2.65,7.56c0,3.13,0.85,5.57,2.55,7.32C171.56,51.42,173.87,52.3,176.78,52.3z M204.74,26.12
		c0.58,0,1.1,0.04,1.57,0.12c0.46,0.08,0.85,0.18,1.18,0.3v7.38c-0.38-0.28-0.94-0.55-1.67-0.8c-0.73-0.25-1.62-0.38-2.67-0.38
		c-1.79,0-3.3,0.75-4.53,2.26c-1.23,1.51-1.85,3.83-1.85,6.96V57.6h-7.29V26.63h7.29v4.88h0.12c0.66-1.69,1.67-3.01,3.01-3.96
		C201.23,26.59,202.85,26.12,204.74,26.12z M207.87,42.57c0-5.12,1.45-9.18,4.34-12.17c2.89-2.99,6.91-4.49,12.05-4.49
		c4.84,0,8.62,1.44,11.34,4.32c2.72,2.88,4.08,6.77,4.08,11.67c0,5.02-1.45,9.02-4.34,11.99c-2.89,2.97-6.83,4.46-11.81,4.46
		c-4.8,0-8.61-1.41-11.43-4.23C209.28,51.3,207.87,47.45,207.87,42.57z M215.47,42.32c0,3.23,0.73,5.7,2.2,7.41
		c1.47,1.71,3.56,2.56,6.3,2.56c2.65,0,4.67-0.85,6.06-2.56c1.39-1.71,2.08-4.24,2.08-7.59c0-3.33-0.72-5.85-2.15-7.55
		c-1.44-1.7-3.45-2.55-6.04-2.55c-2.67,0-4.74,0.89-6.22,2.67C216.2,36.49,215.47,39.03,215.47,42.32z M250.53,34.76
		c0,1.04,0.33,1.86,0.99,2.46c0.66,0.59,2.13,1.34,4.4,2.24c2.91,1.17,4.96,2.48,6.13,3.93c1.18,1.46,1.76,3.22,1.76,5.29
		c0,2.91-1.12,5.25-3.36,7.02c-2.24,1.77-5.27,2.65-9.08,2.65c-1.29,0-2.71-0.16-4.26-0.47c-1.56-0.31-2.88-0.71-3.96-1.19v-7.17
		c1.33,0.92,2.75,1.66,4.28,2.2c1.53,0.54,2.91,0.81,4.16,0.81c1.65,0,2.86-0.23,3.65-0.69c0.78-0.46,1.17-1.24,1.17-2.32
		c0-1-0.41-1.85-1.22-2.55c-0.81-0.69-2.36-1.49-4.62-2.4c-2.69-1.12-4.6-2.39-5.72-3.8c-1.13-1.41-1.69-3.19-1.69-5.36
		c0-2.79,1.11-5.09,3.33-6.88c2.22-1.8,5.1-2.7,8.63-2.7c1.08,0,2.3,0.12,3.64,0.36c1.35,0.24,2.47,0.55,3.37,0.93v6.93
		c-0.96-0.64-2.09-1.19-3.37-1.66c-1.29-0.46-2.56-0.69-3.83-0.69c-1.39,0-2.47,0.27-3.24,0.81
		C250.92,33.08,250.53,33.82,250.53,34.76z M266.95,42.57c0-5.12,1.45-9.18,4.34-12.17c2.89-2.99,6.91-4.49,12.05-4.49
		c4.84,0,8.62,1.44,11.34,4.32c2.72,2.88,4.08,6.77,4.08,11.67c0,5.02-1.45,9.02-4.34,11.99c-2.89,2.97-6.83,4.46-11.81,4.46
		c-4.8,0-8.61-1.41-11.43-4.23C268.36,51.3,266.95,47.45,266.95,42.57z M274.54,42.32c0,3.23,0.73,5.7,2.2,7.41
		c1.47,1.71,3.56,2.56,6.3,2.56c2.65,0,4.67-0.85,6.06-2.56c1.39-1.71,2.08-4.24,2.08-7.59c0-3.33-0.72-5.85-2.15-7.55
		c-1.44-1.7-3.45-2.55-6.04-2.55c-2.67,0-4.74,0.89-6.22,2.67C275.28,36.49,274.54,39.03,274.54,42.32z M322.95,32.59h-10.86v25
		h-7.38v-25h-5.18v-5.96h5.18v-4.31c0-3.25,1.06-5.92,3.18-8c2.12-2.08,4.83-3.12,8.15-3.12c0.88,0,1.67,0.05,2.35,0.14
		c0.68,0.09,1.29,0.23,1.81,0.41v6.3c-0.24-0.14-0.66-0.31-1.27-0.51c-0.6-0.2-1.3-0.3-2.08-0.3c-1.53,0-2.7,0.48-3.53,1.43
		c-0.82,0.95-1.23,2.36-1.23,4.23v3.74h10.86v-6.96l7.32-2.23v9.19h7.38v5.96h-7.38v14.49c0,1.91,0.35,3.25,1.04,4.04
		c0.69,0.78,1.78,1.18,3.27,1.18c0.42,0,0.93-0.1,1.52-0.3c0.59-0.2,1.11-0.44,1.55-0.72v6.03c-0.46,0.26-1.23,0.5-2.3,0.72
		c-1.07,0.22-2.13,0.33-3.18,0.33c-3.07,0-5.38-0.82-6.91-2.45c-1.54-1.64-2.3-4.1-2.3-7.4V32.59z"/>
	<g>
		<rect class="st1" width="34.22" height="34.22"/>
		<rect x="37.78" class="st2" width="34.22" height="34.22"/>
		<rect y="37.78" class="st3" width="34.22" height="34.22"/>
		<rect x="37.78" y="37.78" class="st4" width="34.22" height="34.22"/>
	</g>
</g>
</svg>
